<svg fill="none" height="512" viewBox="0 0 512 512" width="512" xmlns="http://www.w3.org/2000/svg"><circle cx="256" cy="256" fill="#28262c" r="256"/><path d="m364 289.5c0 24.577-19.923 44.5-44.5 44.5s-44.5-19.923-44.5-44.5 19.923-44.5 44.5-44.5 44.5 19.923 44.5 44.5z" fill="#9dc5bb"/><path d="m192.778 286.07c0 34.726-11.556 49.263-57.778 96.93h57.778c31.778-30.51 44.778-59.375 44.778-89.708 0-30.334-8.465-50.556-4.334-79.473 4.334-30.334 24.556-46.31 57.778-46.31l-15.889-43.509c-61.611 0-83.44 38-86.667 89.819-1.444 23.2 4.334 54.917 4.334 72.251z" fill="#fff"/></svg>